HIERARCHY
ROOT Hips
{
	OFFSET 0.00000 0.00000 0.00000
	CHANNELS 6 Xposition Yposition Zposition Zrotation Yrotation Xrotation 
	JOINT LHipJoint
	{
		OFFSET 0 0 0
		CHANNELS 3 Zrotation Yrotation Xrotation
		JOINT LeftHip
		{
			OFFSET 1.26600 -1.82114 0.91038
			CHANNELS 3 Zrotation Yrotation Xrotation
			JOINT LeftKnee
			{
				OFFSET 2.50076 -6.87080 0.00000
				CHANNELS 3 Zrotation Yrotation Xrotation
				JOINT LeftAnkle
				{
					OFFSET 2.57364 -7.07102 0.00000
					CHANNELS 3 Zrotation Yrotation Xrotation
					JOINT LeftToe
					{
						OFFSET 0.13572 -0.37290 1.97004
						CHANNELS 3 Zrotation Yrotation Xrotation
						End Site
						{
							OFFSET 0.00000 -0.00000 1.01383
						}
					}
				}
			}
		}
	}
	JOINT RHipJoint
	{
		OFFSET 0 0 0
		CHANNELS 3 Zrotation Yrotation Xrotation
		JOINT RightHip
		{
			OFFSET -1.20803 -1.82114 0.91038
			CHANNELS 3 Zrotation Yrotation Xrotation
			JOINT RightKnee
			{
				OFFSET -2.54916 -7.00377 0.00000
				CHANNELS 3 Zrotation Yrotation Xrotation
				JOINT RightAnkle
				{
					OFFSET -2.56374 -7.04382 0.00000
					CHANNELS 3 Zrotation Yrotation Xrotation
					JOINT RightToe
					{
						OFFSET -0.23520 -0.64621 2.09921
						CHANNELS 3 Zrotation Yrotation Xrotation
						End Site
						{
							OFFSET -0.00000 -0.00000 1.10065
						}
					}
				}
			}
		}
	}
	JOINT lowerback
	{
		OFFSET 0 0 0
		CHANNELS 3 Zrotation Yrotation Xrotation
		JOINT Chest
		{
			OFFSET 0.05492 2.10797 -0.12074
			CHANNELS 3 Zrotation Yrotation Xrotation
			JOINT Chest2
			{
				OFFSET 0.04577 2.11592 -0.04483
				CHANNELS 3 Zrotation Yrotation Xrotation
				JOINT lowerneck
				{
					OFFSET 0 0 0
					CHANNELS 3 Zrotation Yrotation Xrotation
					JOINT Neck
					{
						OFFSET -0.10759 1.80167 0.15770
						CHANNELS 3 Zrotation Yrotation Xrotation
						JOINT Head
						{
							OFFSET 0.09237 1.77509 -0.40848
							CHANNELS 3 Zrotation Yrotation Xrotation
							End Site
							{
								OFFSET 0.03805 1.84093 -0.15754
							}
						}
					}
				}
				JOINT LeftCollar
				{
					OFFSET 0 0 0
					CHANNELS 3 Zrotation Yrotation Xrotation
					JOINT LeftShoulder
					{
						OFFSET 3.42372 1.09575 -0.28209
CHANNELS 3 Zrotation Xrotation Yrotation
						JOINT LeftElbow
						{
OFFSET 0 -4.956810 0.000000
CHANNELS 3 Zrotation Xrotation Yrotation
							JOINT LeftWrist
							{
OFFSET 0 -3.409150 0.000000
CHANNELS 3 Zrotation Xrotation Yrotation
								JOINT lhand
								{
									OFFSET 0 0 0
CHANNELS 3 Zrotation Xrotation Yrotation
									JOINT LFingers
									{
OFFSET 0 -0.616400 0.000000
CHANNELS 3 Zrotation Xrotation Yrotation
										End Site
										{
OFFSET 0 -0.496960 0.000000
										}
									}
								}
								JOINT LThumb
								{
OFFSET 0 0.000000 0.000000
CHANNELS 3 Zrotation Xrotation Yrotation
									End Site
									{
OFFSET 0 -0.504550 0.504550
									}
								}
							}
						}
					}
				}
				JOINT RightCollar
				{
					OFFSET 0 0 0
					CHANNELS 3 Zrotation Yrotation Xrotation
					JOINT RightShoulder
					{
						OFFSET -3.24731 1.15872 -0.32221
CHANNELS 3 Zrotation Xrotation Yrotation
						JOINT RightElbow
						{
OFFSET 0 -5.352000 0.000000
CHANNELS 3 Zrotation Xrotation Yrotation
							JOINT RightWrist
							{
OFFSET 0 -3.437210 -0.000000
CHANNELS 3 Zrotation Xrotation Yrotation
								JOINT rhand
								{
									OFFSET 0 0 0
CHANNELS 3 Zrotation Xrotation Yrotation
									JOINT RFingers
									{
OFFSET 0 -0.720090 0.000000
CHANNELS 3 Zrotation Xrotation Yrotation
										End Site
										{
OFFSET 0 -0.580560 0.000000
										}
									}
								}
								JOINT RThumb
								{
OFFSET 0 0.000000 0.000000
CHANNELS 3 Zrotation Xrotation Yrotation
									End Site
									{
OFFSET 0 -0.589420 0.589420
									}
								}
							}
						}
					}
				}
			}
		}
	}
}
MOTION
Frames: 5
Frame Time: 0.008333333333333333
20.070100 23.718900 10.849000 -45.949400 -83.027400 49.716400 0.000000 0.000000 0.000000 -14.639100 -9.418100 -15.216000 4.625900 12.949700 39.180600 0.847700 -13.629200 -17.765600 3.008200 10.708300 31.302400 0.000000 0.000000 0.000000 28.228900 -1.684300 -12.366800 -3.422700 -11.349800 33.468900 -1.679900 8.627100 -23.219900 -0.491400 -4.494600 12.472500 5.493400 0.990300 2.387000 3.820900 1.384000 0.785300 0.813300 0.652300 -0.492200 -8.737200 -1.917800 -16.688200 4.218400 -2.187500 31.793900 2.777600 -1.693500 13.707900 -0.000000 -0.000000 0.000000 0.533000 7.044200 -14.703700 18.909500 -29.306000 4.986500 14.000900 3.939300 -15.522700 0.000000 0.000000 0.000000 -7.125000 0.000000 0.000000 -12.757100 45.558200 0.178700 -0.000000 -0.000000 0.000000 -5.696500 2.624400 13.169100 -13.412400 -21.888500 -2.605000 -21.657100 -9.503500 -13.128200 0.000000 0.000000 0.000000 7.125000 0.000000 -0.000000 3.903900 15.914700 2.690100
19.998930 23.657035 10.962210 -44.027980 -83.766765 47.901846 0.000000 0.000000 0.000000 -16.173720 -7.482590 -15.422055 4.424742 12.705074 38.274464 1.054452 -11.429621 -18.849036 0.803519 5.665743 15.834420 0.000000 0.000000 0.000000 26.937740 -2.065908 -13.286963 -3.787299 -11.871762 35.279919 -1.742935 10.242877 -23.721491 -0.820083 -5.778210 16.142166 4.512383 1.058915 2.093311 3.632343 1.430980 0.975203 1.170829 0.687105 -0.151900 -9.230388 -2.307586 -16.387654 3.744808 -2.723119 34.145020 2.612682 -2.170352 14.752386 0.000000 0.000000 0.000000 0.807489 6.885373 -14.703182 18.916988 -29.315340 4.990097 14.832133 4.291330 -15.523221 0.000000 0.000000 0.000000 -7.125000 0.000000 0.000000 -12.000930 45.660879 0.198545 0.000000 0.000000 0.000000 -5.221239 1.913530 13.867184 -13.430713 -21.915082 -2.611890 -21.303802 -10.023383 -14.190039 0.000000 0.000000 0.000000 7.125000 0.000000 0.000000 4.193593 14.823883 2.989299
19.911907 23.620308 11.057228 -44.729163 -84.019042 48.694993 0.000000 0.000000 0.000000 -16.577397 -6.297236 -15.702586 4.486424 12.780932 38.554030 1.024741 -12.357187 -18.817032 0.763606 5.579637 15.569531 0.000000 0.000000 0.000000 26.472599 -2.171241 -13.338398 -3.908249 -12.037235 35.863939 -1.856473 9.879406 -24.459483 -0.536806 -4.694101 13.038108 3.760189 1.089743 2.069609 3.539989 1.460279 1.037747 1.495298 0.704132 -0.091527 -9.608798 -2.457565 -15.666417 3.571809 -2.996500 35.212386 2.571634 -2.433011 15.122422 0.000000 0.000000 0.000000 1.709034 7.331324 -14.898734 18.977524 -29.390766 5.019866 14.725856 3.202507 -15.557056 0.000000 0.000000 0.000000 -7.125000 0.000000 0.000000 -12.107726 45.681549 0.206882 0.000000 0.000000 0.000000 -4.828976 1.632108 15.746749 -13.851555 -22.522036 -2.770971 -21.898522 -11.268664 -14.237517 0.000000 0.000000 0.000000 7.125000 0.000000 0.000000 3.790519 14.708718 2.710036
19.824319 23.610325 11.163642 -42.760921 -83.713377 46.774679 0.000000 0.000000 0.000000 -16.821838 -6.140234 -15.553998 4.537764 12.843505 38.785498 1.002685 -13.193577 -18.863115 0.908031 5.890853 16.526805 0.000000 0.000000 0.000000 26.321129 -2.182274 -13.234853 -4.044063 -12.218793 36.510409 -2.044627 8.830895 -25.666983 -0.295298 -3.494351 9.658163 3.380958 1.087162 2.200358 3.452148 1.455064 1.164420 1.615523 0.703134 -0.042466 -10.043244 -2.629406 -15.287624 3.610983 -3.273519 35.948007 2.625190 -2.650132 15.429723 0.000000 0.000000 0.000000 2.318359 7.307042 -14.232236 18.710076 -29.056787 4.889248 15.227335 3.089508 -16.750752 0.000000 0.000000 0.000000 -7.125000 0.000000 0.000000 -12.002299 46.942370 0.583452 0.000000 0.000000 0.000000 -4.327728 1.149453 17.281490 -14.312024 -23.178981 -2.949824 -21.623812 -11.393625 -14.150845 0.000000 0.000000 0.000000 7.125000 0.000000 0.000000 3.973536 14.830889 2.830934
19.717160 23.569225 11.261455 -35.758557 -83.731588 39.664955 0.000000 0.000000 0.000000 -17.818769 -5.792184 -15.242647 4.552179 12.861002 38.850378 0.973483 -13.946758 -18.848392 0.547661 4.736572 13.159551 0.000000 0.000000 0.000000 25.505921 -0.924632 -12.755672 -4.255500 -12.492841 37.498454 -2.194591 7.580154 -26.657931 -0.432473 -4.216708 11.687632 2.392052 1.222803 2.408487 3.014820 1.632493 1.353862 1.712451 0.796119 0.018206 -10.146945 -2.858124 -14.856290 3.673965 -3.719416 36.338515 2.598443 -2.869846 15.567742 0.000000 0.000000 0.000000 3.223070 7.144463 -13.421323 18.136443 -28.331422 4.613880 14.993171 2.005112 -16.199316 0.000000 0.000000 0.000000 -7.125000 0.000000 0.000000 -12.051525 46.358883 0.410018 0.000000 0.000000 0.000000 -3.839496 0.916860 18.969928 -14.827908 -23.905851 -3.155888 -22.134239 -11.825233 -14.836362 0.000000 0.000000 0.000000 7.125000 0.000000 0.000000 3.662188 14.044565 2.669666
